<?xml version="1.0" encoding="UTF-8" standalone="no"?>
<svg width="36px" height="34px" viewBox="0 0 256 256" version="1.1" xmlns="http://www.w3.org/2000/svg" xmlns:xlink="http://www.w3.org/1999/xlink" xmlns:sketch="http://www.bohemiancoding.com/sketch/ns">
    <!-- Generator: Sketch 3.3.2 (12043) - http://www.bohemiancoding.com/sketch -->
    <title>Icon SVG</title>
    <desc>Created with Sketch.</desc>
    <defs></defs>
    <g id="Page-1" stroke="none" stroke-width="1" fill="none" fill-rule="evenodd" sketch:type="MSPage">
        <g id="Icon-SVG" sketch:type="MSLayerGroup">
            <path d="M128,218 C177.705627,218 218,177.705627 218,128 C218,78.2943725 177.705627,38 128,38 C78.2943725,38 38,78.2943725 38,128 C38,177.705627 78.2943725,218 128,218 L128,218 L128,218 Z M128,77.375 L144.875,77.375 C154.194805,77.375 161.75,84.9231309 161.75,94.25073 L161.75,161.74927 C161.75,171.069478 154.196854,178.625 144.875,178.625 L128,77.375 L128,77.375 Z M122.375,161.75 L111.125,161.75 C104.911797,161.75 99.875,156.704134 99.875,150.49002 L99.875,105.50998 C99.875,99.2912648 104.91043,94.25 111.125,94.25 L122.375,161.75 L122.375,161.75 Z" id="Oval-15" fill="#FFFFFF" sketch:type="MSShapeGroup"></path>
        </g>
    </g>
</svg>